# xmcd CD database file
#
# Track frame offsets:
#	225
#	38721
#	53609
#	85264
#	115756
#	138829
#	174977
#	182786
#
# Disc length: 3033 seconds
#
# Revision: 0
# Processed by: cddbd v1.5.2PL0 Copyright (c) Steve Scherf et al.
# Submitted via: CDex 2.00
#
DISCID=5d0bd608
DTITLE=Gavin Barras - Day Of Reckoning
DYEAR=2012
DGENRE=Jazz
TTITLE0=Billy Harper
TTITLE1=Over Water
TTITLE2=In a Bit
TTITLE3=Back in Seven
TTITLE4=Pathway
TTITLE5=Ervin
TTITLE6=#tag
TTITLE7=Day of Reckoning
EXTD=YEAR: 2012
EXTT0=
EXTT1=
EXTT2=
EXTT3=
EXTT4=
EXTT5=
EXTT6=
EXTT7=
PLAYORDER=
